<?xml version="1.0" encoding="UTF-8" standalone="no"?>
<!-- Generator: Adobe Illustrator 19.0.0, SVG Export Plug-In . SVG Version: 6.00 Build 0)  -->

<svg
   version="1.1"
   id="Layer_1"
   x="0px"
   y="0px"
   viewBox="0 0 1365.0019 512.002"
   xml:space="preserve"
   sodipodi:docname="logo.svg"
   width="1365.002"
   height="512.00201"
   inkscape:version="1.1.1 (3bf5ae0d25, 2021-09-20, custom)"
   xmlns:inkscape="http://www.inkscape.org/namespaces/inkscape"
   xmlns:sodipodi="http://sodipodi.sourceforge.net/DTD/sodipodi-0.dtd"
   xmlns="http://www.w3.org/2000/svg"
   xmlns:svg="http://www.w3.org/2000/svg"><defs
   id="defs63"><rect
     x="-2151.7205"
     y="-560.12042"
     width="703.41699"
     height="466.6521"
     id="rect38864" /><rect
     x="-735.96686"
     y="233.6479"
     width="1246.4941"
     height="463.44473"
     id="rect13246" /></defs><sodipodi:namedview
   id="namedview61"
   pagecolor="#505050"
   bordercolor="#ffffff"
   borderopacity="1"
   inkscape:pageshadow="0"
   inkscape:pageopacity="0"
   inkscape:pagecheckerboard="1"
   showgrid="false"
   width="1365.002px"
   inkscape:zoom="0.35631413"
   inkscape:cx="680.57924"
   inkscape:cy="314.32938"
   inkscape:window-width="1366"
   inkscape:window-height="700"
   inkscape:window-x="0"
   inkscape:window-y="0"
   inkscape:window-maximized="1"
   inkscape:current-layer="Layer_1" />



<g
   id="g1097"
   transform="translate(0,-0.62481446)"><path
     style="fill:#ede21b"
     d="M 287.139,366.267 C 202.81,338.373 141.794,258.795 141.794,165.238 c 0,-46.833 14.997,-91.22 43.365,-128.358 3.712,-4.86 3.639,-11.621 -0.176,-16.401 -3.815,-4.779 -10.393,-6.351 -15.954,-3.804 -43.196,19.756 -79.824,51.252 -105.92,91.08 -26.79,40.885 -40.949,88.44 -40.949,137.523 0,138.547 112.717,251.264 251.264,251.264 49.085,0 96.638,-14.161 137.524,-40.949 39.827,-26.097 71.323,-62.724 91.08,-105.922 2.544,-5.562 0.975,-12.14 -3.804,-15.955 -4.779,-3.814 -11.542,-3.886 -16.401,-0.175 -37.137,28.37 -81.524,43.365 -128.358,43.365 -12.955,0 -25.645,-1.17 -37.966,-3.409"
     id="path2" /><path
     style="fill:#eac71c"
     d="m 440.589,427.36 c -40.886,26.79 -88.439,40.949 -137.523,40.949 -138.547,0 -251.264,-112.717 -251.264,-251.264 0,-49.083 14.159,-96.638 40.949,-137.523 6.67,-10.18 14.032,-19.812 22.011,-28.846 -17.166,15.012 -32.314,32.367 -44.975,51.691 -26.79,40.886 -40.949,88.44 -40.949,137.523 0,138.547 112.718,251.264 251.265,251.264 49.085,0 96.638,-14.161 137.523,-40.949 18.96,-12.423 36.025,-27.236 50.841,-44.004 -8.752,7.65 -18.06,14.726 -27.878,21.159 z"
     id="path4" /><g
     id="g12">
	<path
   style="fill:#f29f26"
   d="m 344.021,155.33 c -25.56,0 -46.282,-20.723 -46.282,-46.283 0,25.561 -20.722,46.283 -46.283,46.283 25.563,0 46.283,20.723 46.283,46.282 -10e-4,-25.559 20.722,-46.282 46.282,-46.282 z"
   id="path6" />
	<circle
   style="fill:#f29f26"
   cx="375.40302"
   cy="249.452"
   r="18.486"
   id="circle8" />
	<circle
   style="fill:#f29f26"
   cx="40.451"
   cy="464.01599"
   r="18.486"
   id="circle10" />
</g><g
     id="g28">
	<path
   style="fill:#231f20"
   d="M 273.423,505.3 C 130.047,505.3 13.402,388.654 13.402,245.279 13.402,194.485 28.057,145.27 55.784,102.956 82.787,61.744 120.688,29.155 165.387,8.711 c 9.226,-4.223 20.101,-1.635 26.439,6.304 6.334,7.935 6.454,19.112 0.292,27.179 -27.194,35.599 -41.568,78.148 -41.568,123.042 0,87.702 55.995,165.148 139.338,192.715 4.591,1.519 7.082,6.473 5.564,11.065 -1.521,4.59 -6.471,7.08 -11.065,5.564 -43.65,-14.437 -81.203,-41.761 -108.6,-79.017 -27.969,-38.031 -42.752,-83.098 -42.752,-130.328 0,-48.771 15.618,-94.994 45.163,-133.673 1.274,-1.667 1.249,-3.98 -0.061,-5.621 -1.31,-1.642 -3.555,-2.178 -5.462,-1.305 -41.699,19.072 -77.052,49.473 -102.242,87.92 -25.851,39.453 -39.517,85.348 -39.517,132.723 0,133.718 108.788,242.507 242.507,242.507 47.372,0 93.268,-13.665 132.724,-39.517 38.446,-25.191 68.848,-60.546 87.917,-102.238 0.874,-1.91 0.338,-4.159 -1.303,-5.469 -1.642,-1.308 -3.954,-1.336 -5.624,-0.059 -38.674,29.545 -84.899,45.162 -133.671,45.162 -13.264,0 -26.565,-1.194 -39.53,-3.55 -4.76,-0.865 -7.917,-5.423 -7.051,-10.181 0.865,-4.761 5.421,-7.919 10.181,-7.051 11.936,2.167 24.183,3.268 36.401,3.268 44.899,0 87.445,-14.374 123.041,-41.568 8.07,-6.162 19.247,-6.041 27.18,0.29 7.936,6.337 10.527,17.21 6.305,26.443 -20.445,44.699 -53.034,82.6 -94.245,109.603 -42.317,27.726 -91.532,42.381 -142.325,42.381 z"
   id="path14" />
	<path
   style="fill:#231f20"
   d="m 297.738,210.369 c -4.836,0 -8.757,-3.921 -8.757,-8.757 0,-20.691 -16.835,-37.525 -37.526,-37.525 -4.836,0 -8.757,-3.921 -8.757,-8.757 0,-4.836 3.921,-8.757 8.757,-8.757 20.691,0 37.526,-16.835 37.526,-37.526 0,-4.836 3.921,-8.757 8.757,-8.757 4.836,0 8.757,3.921 8.757,8.757 0,20.691 16.834,37.526 37.525,37.526 4.836,0 8.757,3.921 8.757,8.757 0,4.836 -3.921,8.757 -8.757,8.757 -20.691,0 -37.525,16.834 -37.525,37.525 0,4.836 -3.921,8.757 -8.757,8.757 z M 281.215,155.33 c 6.614,4.267 12.256,9.909 16.524,16.523 4.267,-6.614 9.909,-12.255 16.523,-16.523 -6.614,-4.267 -12.255,-9.91 -16.523,-16.524 -4.268,6.614 -9.91,12.257 -16.524,16.524 z"
   id="path16" />
	<path
   style="fill:#231f20"
   d="m 375.405,276.698 c -15.022,0 -27.243,-12.221 -27.243,-27.242 0,-15.022 12.221,-27.244 27.243,-27.244 15.022,0 27.244,12.222 27.244,27.244 0,15.021 -12.222,27.242 -27.244,27.242 z m 0,-36.97 c -5.364,0 -9.728,4.364 -9.728,9.729 0,5.363 4.363,9.727 9.728,9.727 5.364,0 9.729,-4.363 9.729,-9.727 0,-5.364 -4.364,-9.729 -9.729,-9.729 z"
   id="path18" />
	<path
   style="fill:#231f20"
   d="m 40.451,491.256 c -15.022,0 -27.243,-12.222 -27.243,-27.244 0,-15.021 12.221,-27.242 27.243,-27.242 15.022,0 27.243,12.221 27.243,27.243 0,15.021 -12.221,27.243 -27.243,27.243 z m 0,-36.971 c -5.364,0 -9.728,4.363 -9.728,9.728 0,5.364 4.363,9.729 9.728,9.729 5.365,0 9.728,-4.364 9.728,-9.729 0,-5.365 -4.363,-9.728 -9.728,-9.728 z"
   id="path20" />
	<circle
   style="fill:#231f20"
   cx="297.737"
   cy="260.44199"
   r="10.979"
   id="circle22" />
	<circle
   style="fill:#231f20"
   cx="10.979"
   cy="392.272"
   r="10.979"
   id="circle24" />
	<circle
   style="fill:#231f20"
   cx="368.14499"
   cy="90.737"
   r="10.979"
   id="circle26" />
</g></g>
<g
   id="g30">
</g>
<g
   id="g32">
</g>
<g
   id="g34">
</g>
<g
   id="g36">
</g>
<g
   id="g38">
</g>
<g
   id="g40">
</g>
<g
   id="g42">
</g>
<g
   id="g44">
</g>
<g
   id="g46">
</g>
<g
   id="g48">
</g>
<g
   id="g50">
</g>
<g
   id="g52">
</g>
<g
   id="g54">
</g>
<g
   id="g56">
</g>
<g
   id="g58">
</g>
<g
   id="g1108"
   transform="translate(0,11.354511)"><g
     aria-label="Moon Bank"
     transform="matrix(1.2041672,0,0,1.2041672,3125.7465,670.39422)"
     id="text38862"
     style="font-size:240px;line-height:0.95;font-family:Poppins;-inkscape-font-specification:Poppins;white-space:pre;shape-inside:url(#rect38864)"><path
       d="m -1944.4338,-552.2011 v 166.08 h -21.84 v -123.84 l -55.2,123.84 h -15.36 l -55.44,-124.08 v 124.08 h -21.84 v -166.08 h 23.52 l 61.44,137.28 61.44,-137.28 z"
       id="path854" /><path
       d="m -1850.1138,-383.9611 q -18.48,0 -33.6,-8.4 -14.88,-8.4 -23.52,-23.76 -8.4,-15.6 -8.4,-36 0,-20.16 8.64,-35.52 8.88,-15.6 24,-23.76 15.12,-8.4 33.84,-8.4 18.72,0 33.84,8.4 15.12,8.16 23.76,23.52 8.88,15.36 8.88,35.76 0,20.4 -9.12,36 -8.88,15.36 -24.24,23.76 -15.36,8.4 -34.08,8.4 z m 0,-19.2 q 11.76,0 22.08,-5.52 10.32,-5.52 16.56,-16.56 6.48,-11.04 6.48,-26.88 0,-15.84 -6.24,-26.88 -6.24,-11.04 -16.32,-16.32 -10.08,-5.52 -21.84,-5.52 -12,0 -22.08,5.52 -9.84,5.28 -15.84,16.32 -6,11.04 -6,26.88 0,16.08 5.76,27.12 6,11.04 15.84,16.56 9.84,5.28 21.6,5.28 z"
       id="path856" /><path
       d="m -1696.5139,-383.9611 q -18.48,0 -33.6,-8.4 -14.88,-8.4 -23.52,-23.76 -8.4,-15.6 -8.4,-36 0,-20.16 8.64,-35.52 8.88,-15.6 24,-23.76 15.12,-8.4 33.84,-8.4 18.72,0 33.84,8.4 15.12,8.16 23.76,23.52 8.88,15.36 8.88,35.76 0,20.4 -9.12,36 -8.88,15.36 -24.24,23.76 -15.36,8.4 -34.08,8.4 z m 0,-19.2 q 11.76,0 22.08,-5.52 10.32,-5.52 16.56,-16.56 6.48,-11.04 6.48,-26.88 0,-15.84 -6.24,-26.88 -6.24,-11.04 -16.32,-16.32 -10.08,-5.52 -21.84,-5.52 -12,0 -22.08,5.52 -9.84,5.28 -15.84,16.32 -6,11.04 -6,26.88 0,16.08 5.76,27.12 6,11.04 15.84,16.56 9.84,5.28 21.6,5.28 z"
       id="path858" /><path
       d="m -1536.1941,-520.0411 q 24,0 38.88,14.64 14.88,14.4 14.88,41.76 v 77.52 h -21.6 v -74.4 q 0,-19.68 -9.84,-30 -9.84,-10.56 -26.88,-10.56 -17.28,0 -27.6,10.8 -10.08,10.8 -10.08,31.44 v 72.72 h -21.84 v -131.52 h 21.84 v 18.72 q 6.48,-10.08 17.52,-15.6 11.28,-5.52 24.72,-5.52 z"
       id="path860" /><path
       d="m -2030.3538,-244.2811 q 9.12,1.44 16.56,7.44 7.68,6 12,14.88 4.56,8.88 4.56,18.96 0,12.72 -6.48,23.04 -6.48,10.08 -18.96,16.08 -12.24,5.76 -29.04,5.76 h -62.4 v -167.28 h 60 q 17.04,0 29.04,5.76 12,5.52 18,15.12 6,9.6 6,21.6 0,14.88 -8.16,24.72 -7.92,9.6 -21.12,13.92 z m -61.92,-8.88 h 36.72 q 15.36,0 23.76,-7.2 8.4,-7.2 8.4,-19.92 0,-12.72 -8.4,-19.92 -8.4,-7.2 -24.24,-7.2 h -36.24 z m 38.64,77.04 q 16.32,0 25.44,-7.68 9.12,-7.68 9.12,-21.36 0,-13.92 -9.6,-21.84 -9.6,-8.16 -25.68,-8.16 h -37.92 v 59.04 z"
       id="path862" /><path
       d="m -1975.1536,-224.3611 q 0,-20.16 8.16,-35.28 8.16,-15.36 22.32,-23.76 14.4,-8.4 31.92,-8.4 17.28,0 30,7.44 12.72,7.44 18.96,18.72 v -24 h 22.08 v 131.52 h -22.08 v -24.48 q -6.48,11.52 -19.44,19.2 -12.72,7.44 -29.76,7.44 -17.52,0 -31.68,-8.64 -14.16,-8.64 -22.32,-24.24 -8.16,-15.6 -8.16,-35.52 z m 111.36,0.24 q 0,-14.88 -6,-25.92 -6,-11.04 -16.32,-16.8 -10.08,-6 -22.32,-6 -12.24,0 -22.32,5.76 -10.08,5.76 -16.08,16.8 -6,11.04 -6,25.92 0,15.12 6,26.4 6,11.04 16.08,17.04 10.08,5.76 22.32,5.76 12.24,0 22.32,-5.76 10.32,-6 16.32,-17.04 6,-11.28 6,-26.16 z"
       id="path864" /><path
       d="m -1740.6735,-292.0411 q 24,0 38.88,14.64 14.88,14.4 14.88,41.76 v 77.52 h -21.6 v -74.4 q 0,-19.68 -9.84,-30 -9.84,-10.56 -26.88,-10.56 -17.28,0 -27.6,10.8 -10.08,10.8 -10.08,31.44 v 72.72 h -21.84 v -131.52 h 21.84 v 18.72 q 6.48,-10.08 17.52,-15.6 11.28,-5.52 24.72,-5.52 z"
       id="path866" /><path
       d="m -1577.7136,-158.1211 -51.6,-58.08 v 58.08 h -21.84 v -177.6 h 21.84 v 104.4 l 50.64,-58.32 h 30.48 l -61.92,65.52 62.16,66 z"
       id="path868" /></g></g></svg>
